<svg width="32" height="32" viewBox="0 0 500 500" fill="none" xmlns="http://www.w3.org/2000/svg">
  <path d="M167 150L220 100V400L167 350V150Z" fill="#000000"/>
  <path d="M220 100L280 50V450L220 400V100Z" fill="#F7941D"/>
  <path d="M280 150L333 100V400L280 350V150Z" fill="#000000"/>
  <path d="M225 180C225 180 250 175 275 180V320C275 320 250 325 225 320V180Z" fill="#FFFFFF"/>
  <circle cx="250" cy="190" r="10" fill="#FFFFFF"/>
  <g transform="translate(185, 215)">
    <line x1="0" y1="0" x2="0" y2="20" stroke="#FFFFFF" stroke-width="3"/>
    <ellipse cx="0" cy="30" rx="15" ry="5" fill="none" stroke="#FFFFFF" stroke-width="2"/>
  </g>
  <g transform="translate(315, 215)">
    <line x1="0" y1="0" x2="0" y2="20" stroke="#FFFFFF" stroke-width="3"/>
    <ellipse cx="0" cy="30" rx="15" ry="5" fill="none" stroke="#FFFFFF" stroke-width="2"/>
  </g>
  <line x1="185" y1="215" x2="315" y2="215" stroke="#FFFFFF" stroke-width="3"/>
  <line x1="240" y1="210" x2="240" y2="300" stroke="#F7941D" stroke-width="8"/>
  <line x1="260" y1="210" x2="260" y2="300" stroke="#F7941D" stroke-width="8"/>
</svg>
